<?xml version="1.0" encoding="utf-8"?>
<!-- Generator: Adobe Illustrator 26.0.2, SVG Export Plug-In . SVG Version: 6.00 Build 0)  -->
<svg version="1.1" id="Ebene_1" xmlns="http://www.w3.org/2000/svg" xmlns:xlink="http://www.w3.org/1999/xlink" x="0px" y="0px"
	 viewBox="0 0 24 24" style="enable-background:new 0 0 24 24;" xml:space="preserve">
<path d="M0,6.3c0.5-1,1.3-1.1,2.1-0.3c3.2,3.2,6.4,6.3,9.5,9.5c0.1,0.1,0.2,0.3,0.4,0.4c0.9-0.9,1.8-1.8,2.6-2.7
	c2.4-2.4,4.9-4.9,7.3-7.3c0.8-0.8,1.5-0.7,2.1,0.3c0,0.2,0,0.4,0,0.5c-0.2,0.3-0.4,0.6-0.7,0.8C19.9,11.1,16.4,14.6,13,18
	c-0.8,0.8-1.3,0.8-2,0C7.5,14.6,4.1,11.1,0.7,7.7C0.4,7.4,0.2,7.1,0,6.9C0,6.7,0,6.5,0,6.3z"/>
</svg>
