<?xml version="1.0" encoding="utf-8"?>
<!-- Generator: Adobe Illustrator 26.0.2, SVG Export Plug-In . SVG Version: 6.00 Build 0)  -->
<svg version="1.1" id="Ebene_1" xmlns="http://www.w3.org/2000/svg" xmlns:xlink="http://www.w3.org/1999/xlink" x="0px" y="0px"
	 viewBox="0 0 24 24" style="enable-background:new 0 0 24 24;" xml:space="preserve">
<path d="M24,17.7c-0.5,1-1.3,1.1-2.1,0.3c-3.2-3.2-6.4-6.3-9.5-9.5c-0.1-0.1-0.2-0.3-0.4-0.4c-0.9,0.9-1.8,1.8-2.6,2.7
	c-2.4,2.4-4.9,4.9-7.3,7.3c-0.8,0.8-1.5,0.7-2.1-0.3c0-0.2,0-0.4,0-0.5c0.2-0.3,0.4-0.6,0.7-0.8C4.1,12.9,7.5,9.5,11,6.1
	c0.8-0.8,1.3-0.8,2,0c3.4,3.4,6.9,6.9,10.3,10.3c0.2,0.2,0.4,0.5,0.7,0.8C24,17.4,24,17.5,24,17.7z"/>
</svg>
